<?xml version="1.0" encoding="utf-8"?>
<!-- Generator: Adobe Illustrator 16.0.0, SVG Export Plug-In . SVG Version: 6.00 Build 0)  -->
<!DOCTYPE svg PUBLIC "-//W3C//DTD SVG 1.1//EN" "http://www.w3.org/Graphics/SVG/1.1/DTD/svg11.dtd">
<svg version="1.1" id="Layer_1" xmlns="http://www.w3.org/2000/svg" xmlns:xlink="http://www.w3.org/1999/xlink" x="0px" y="0px"
	 width="20px" height="20.002px" viewBox="586 411 20 20.002" enable-background="new 586 411 20 20.002" xml:space="preserve">
<g id="Ellipse_1_1_">
	<g>
		<path fill="#717171" d="M601.445,414h-10.89c-0.858,0-1.556,0.696-1.556,1.556v10.889c0,0.859,0.697,1.557,1.556,1.557h10.89
			c0.857,0,1.555-0.697,1.555-1.557v-10.889C603,414.696,602.304,414,601.445,414z M602,427h-12c-0.135-0.031,0-0.678,0-1v-11
			c0-0.322,0.053-0.125,0,0h11c0.916,0.031,1-0.197,1,0v11C602,426.478,602.041,426.937,602,427z M596,424l-2-4l-3,3v3h10
			c-1.242-1.688-3-4-3-4L596,424z M598.5,420c0.828,0,1.5-0.672,1.5-1.5s-0.672-1.5-1.5-1.5s-1.5,0.672-1.5,1.5
			S597.671,420,598.5,420z"/>
	</g>
</g>
</svg>
