<?xml version="1.0" encoding="utf-8"?>
<!-- Generator: Adobe Illustrator 16.0.0, SVG Export Plug-In . SVG Version: 6.00 Build 0)  -->
<!DOCTYPE svg PUBLIC "-//W3C//DTD SVG 1.1//EN" "http://www.w3.org/Graphics/SVG/1.1/DTD/svg11.dtd">
<svg version="1.1" id="Layer_1" xmlns="http://www.w3.org/2000/svg" xmlns:xlink="http://www.w3.org/1999/xlink" x="0px" y="0px"
	 width="48px" height="37.019px" viewBox="572 401.961 48 37.019" enable-background="new 572 401.961 48 37.019"
	 xml:space="preserve">
<g id="Shape_40_copy_2">
	<g>
		<path fill="#008944" d="M619.472,407.487l-4.834-4.974c-0.707-0.736-1.937-0.736-2.727,0l-21.361,22.471
			c-0.707,0.83-1.934,0.83-2.727,0l-7.733-8.103c-0.794-0.832-2.027-0.832-2.727,0l-4.835,4.97c-0.706,0.83-0.706,2.117,0,2.855
			l12.22,12.893c0.703,0.736,2.197,1.381,3.254,1.381h2.286c1.052,0,2.46-0.645,3.251-1.381l25.932-27.257
			C620.175,409.604,620.175,408.316,619.472,407.487z"/>
	</g>
</g>
</svg>
