<?xml version="1.0" encoding="utf-8"?>
<!-- Generator: Adobe Illustrator 16.0.0, SVG Export Plug-In . SVG Version: 6.00 Build 0)  -->
<!DOCTYPE svg PUBLIC "-//W3C//DTD SVG 1.1//EN" "http://www.w3.org/Graphics/SVG/1.1/DTD/svg11.dtd">
<svg version="1.1" id="Layer_1" xmlns="http://www.w3.org/2000/svg" xmlns:xlink="http://www.w3.org/1999/xlink" x="0px" y="0px"
	 width="20px" height="20px" viewBox="586 411 20 20" enable-background="new 586 411 20 20" xml:space="preserve">
<g id="Ellipse_1">
	<g>
		<path fill="#717171" d="M604.333,411h-16.667c-1.227,0-1.666,0.439-1.666,1.667v16.667c0,1.227,0.439,1.666,1.666,1.666h16.667
			c1.227,0,1.666-0.439,1.666-1.666v-16.667C606,411.439,605.56,411,604.333,411z M604,429h-16v-16h16V429z M599,421l-3,3l-2-6l-5,5
			v5h14L599,421z M599,419c1.104,0,2-0.896,2-2s-0.896-2-2-2s-2,0.896-2,2S597.896,419,599,419z"/>
	</g>
</g>
</svg>
